<?xml version="1.0" encoding="utf-8"?>
<!-- Generator: Adobe Illustrator 25.2.1, SVG Export Plug-In . SVG Version: 6.00 Build 0)  -->
<svg version="1.1" id="Camada_1" xmlns="http://www.w3.org/2000/svg" xmlns:xlink="http://www.w3.org/1999/xlink" x="0px" y="0px"
	 viewBox="0 0 25.15 7.75" style="enable-background:new 0 0 25.15 7.75;" xml:space="preserve">
<style type="text/css">
	.st0{fill:#929368;}
</style>
<rect class="st0" width="25.15" height="7.75"/>
<g>
	<path d="M3.22,2.4h0.33v2.02H4.8v0.29H3.22V2.4z"/>
	<path d="M6.76,3.94H5.34c0.04,0.31,0.29,0.51,0.63,0.51c0.2,0,0.38-0.07,0.5-0.21l0.17,0.2C6.5,4.63,6.26,4.73,5.97,4.73
		c-0.56,0-0.94-0.37-0.94-0.89c0-0.52,0.37-0.89,0.88-0.89s0.86,0.36,0.86,0.9C6.77,3.87,6.76,3.91,6.76,3.94z M5.34,3.72h1.12
		c-0.03-0.29-0.25-0.5-0.56-0.5C5.6,3.22,5.38,3.42,5.34,3.72z"/>
	<path d="M8.62,3.66v1.05h-0.3V4.48c-0.11,0.16-0.3,0.25-0.57,0.25c-0.4,0-0.65-0.21-0.65-0.51c0-0.28,0.18-0.51,0.7-0.51h0.5V3.64
		c0-0.27-0.15-0.42-0.47-0.42c-0.21,0-0.42,0.07-0.55,0.19L7.15,3.17c0.18-0.15,0.44-0.22,0.72-0.22C8.35,2.95,8.62,3.18,8.62,3.66z
		 M8.3,4.18V3.93H7.81c-0.31,0-0.4,0.12-0.4,0.27c0,0.17,0.15,0.28,0.39,0.28C8.04,4.49,8.22,4.38,8.3,4.18z"/>
	<path d="M10.22,2.95v0.31c-0.03,0-0.05,0-0.07,0c-0.34,0-0.55,0.21-0.55,0.59v0.87H9.28V2.96h0.3v0.29
		C9.7,3.05,9.92,2.95,10.22,2.95z"/>
	<path d="M12.35,3.71v1.01h-0.32V3.74c0-0.34-0.17-0.51-0.47-0.51c-0.34,0-0.55,0.2-0.55,0.58v0.9h-0.32V2.96h0.3v0.26
		c0.13-0.18,0.35-0.28,0.63-0.28C12.05,2.95,12.35,3.19,12.35,3.71z"/>
	<path d="M16.88,3.71v1.01h-0.32V3.74c0-0.34-0.16-0.51-0.45-0.51c-0.32,0-0.52,0.2-0.52,0.58v0.9h-0.32V3.74
		c0-0.34-0.16-0.51-0.45-0.51c-0.32,0-0.52,0.2-0.52,0.58v0.9h-0.32V2.96h0.3v0.26c0.13-0.18,0.34-0.28,0.6-0.28
		c0.27,0,0.49,0.11,0.61,0.32c0.13-0.2,0.38-0.32,0.67-0.32C16.59,2.95,16.88,3.19,16.88,3.71z"/>
	<path d="M17.39,3.84c0-0.52,0.39-0.89,0.91-0.89c0.52,0,0.91,0.37,0.91,0.89c0,0.52-0.38,0.89-0.91,0.89
		C17.77,4.73,17.39,4.36,17.39,3.84z M18.89,3.84c0-0.37-0.25-0.61-0.59-0.61c-0.34,0-0.59,0.24-0.59,0.61s0.25,0.62,0.59,0.62
		C18.63,4.45,18.89,4.21,18.89,3.84z"/>
	<path d="M20.66,2.95v0.31c-0.03,0-0.05,0-0.07,0c-0.34,0-0.55,0.21-0.55,0.59v0.87h-0.32V2.96h0.3v0.29
		C20.14,3.05,20.35,2.95,20.66,2.95z"/>
	<path d="M22.69,3.94h-1.42c0.04,0.31,0.29,0.51,0.63,0.51c0.2,0,0.38-0.07,0.5-0.21l0.17,0.2c-0.16,0.18-0.4,0.28-0.69,0.28
		c-0.56,0-0.94-0.37-0.94-0.89c0-0.52,0.37-0.89,0.88-0.89s0.86,0.36,0.86,0.9C22.69,3.87,22.69,3.91,22.69,3.94z M21.27,3.72h1.12
		c-0.03-0.29-0.25-0.5-0.56-0.5C21.53,3.22,21.3,3.42,21.27,3.72z"/>
</g>
</svg>
