<?xml version="1.0" encoding="utf-8"?>
<!-- Generator: Adobe Illustrator 25.2.1, SVG Export Plug-In . SVG Version: 6.00 Build 0)  -->
<svg version="1.1" id="Camada_1" xmlns="http://www.w3.org/2000/svg" xmlns:xlink="http://www.w3.org/1999/xlink" x="0px" y="0px"
	 viewBox="0 0 277.25 112.47" style="enable-background:new 0 0 277.25 112.47;" xml:space="preserve">
<style type="text/css">
	.st0{enable-background:new    ;}
	.st1{fill:#BAA692;}
	.st2{fill:none;stroke:#BAA692;stroke-width:3;}
</style>
<g class="st0">
	<path class="st1" d="M62.01,90.72c5.04,0,8.91-0.83,11.59-2.48c2.69-1.65,4.61-3.76,5.77-6.32c1.16-2.56,1.8-5.43,1.92-8.62
		c0.12-3.18,0.19-6.3,0.19-9.36V4.79h5.46V65.8c0,1.74-0.02,3.68-0.06,5.83c-0.04,2.15-0.29,4.32-0.74,6.51
		c-0.46,2.19-1.16,4.32-2.11,6.39c-0.95,2.07-2.34,3.91-4.15,5.52c-1.82,1.61-4.11,2.91-6.88,3.91c-2.77,0.99-6.22,1.49-10.35,1.49
		c-5.95,0-10.62-0.95-14.01-2.85c-3.39-1.9-5.89-4.34-7.5-7.32c-1.61-2.98-2.6-6.24-2.98-9.8c-0.37-3.55-0.56-6.98-0.56-10.29h5.46
		c-0.25,3.31-0.21,6.49,0.12,9.55c0.33,3.06,1.16,5.77,2.48,8.12c1.32,2.36,3.29,4.26,5.89,5.7C54.13,90,57.62,90.72,62.01,90.72z"
		/>
	<path class="st1" d="M131.57,88.61h0.25l30.63-83.82h5.46l-33.11,88.54h-6.32L95.49,4.79h5.7L131.57,88.61z"/>
	<path class="st1" d="M176.46,4.79h37.7c2.48,0,5.23,0.29,8.25,0.87c3.02,0.58,5.83,1.76,8.43,3.53c2.6,1.78,4.77,4.3,6.51,7.56
		c1.74,3.27,2.6,7.54,2.6,12.83c0,7.77-2.4,13.76-7.19,17.98c-4.79,4.22-11.66,6.32-20.58,6.32h-30.26v39.43h-5.46V4.79z
		 M181.91,49.18h31.12c3.97,0,7.34-0.6,10.11-1.8c2.77-1.2,4.98-2.75,6.63-4.65c1.65-1.9,2.85-4.01,3.6-6.32
		c0.74-2.31,1.12-4.63,1.12-6.94c0-1.65-0.25-3.62-0.74-5.89c-0.5-2.27-1.49-4.46-2.98-6.57c-1.49-2.11-3.58-3.88-6.26-5.33
		c-2.69-1.45-6.26-2.17-10.73-2.17h-31.87V49.18z"/>
</g>
<line id="Linha_4" class="st2" x1="3.6" y1="107.82" x2="272.6" y2="107.82"/>
</svg>
